<svg fill="#0084ff" version="1.1" id="Capa_1" xmlns="http://www.w3.org/2000/svg" xmlns:xlink="http://www.w3.org/1999/xlink" width="64px" height="64px" viewBox="0 0 43.916 43.916" xml:space="preserve" stroke="#0084ff"><g id="SVGRepo_bgCarrier" stroke-width="0"></g><g id="SVGRepo_tracerCarrier" stroke-linecap="round" stroke-linejoin="round"></g><g id="SVGRepo_iconCarrier"> <g> <path d="M34.395,0H9.522c-2.762,0-5,2.239-5,5v33.916c0,2.761,2.238,5,5,5h24.871c2.762,0,5-2.239,5-5V5 C39.395,2.239,37.154,0,34.395,0z M9.265,22.646l1.745-3.396c0.024-0.047,0.055-0.088,0.092-0.125l14.522-14.52 c0.194-0.195,0.513-0.195,0.707,0l1.649,1.65c0.095,0.094,0.146,0.221,0.146,0.354c0,0.133-0.053,0.26-0.146,0.354L13.458,21.484 c-0.037,0.035-0.08,0.066-0.125,0.091L9.938,23.32c-0.193,0.1-0.429,0.063-0.583-0.092C9.202,23.075,9.165,22.841,9.265,22.646z M32.708,39.454h-21.5c-1.104,0-2-0.896-2-2s0.896-2,2-2h21.5c1.104,0,2,0.896,2,2S33.812,39.454,32.708,39.454z M32.708,31.954 h-21.5c-1.104,0-2-0.896-2-2s0.896-2,2-2h21.5c1.104,0,2,0.896,2,2S33.812,31.954,32.708,31.954z M32.708,24.454h-14 c-1.104,0-2-0.896-2-2s0.896-2,2-2h14c1.104,0,2,0.896,2,2S33.812,24.454,32.708,24.454z"></path> </g> </g></svg>