<?xml version="1.0" encoding="UTF-8" standalone="no"?>
<!-- Uploaded to: SVG Repo, www.svgrepo.com, Transformed by: SVG Repo Mixer Tools -->

<svg
   height="64px"
   width="64px"
   version="1.1"
   id="Layer_1"
   viewBox="0 0 512 512"
   xml:space="preserve"
   fill="#000000"
   sodipodi:docname="km.svg"
   inkscape:version="1.3 (0e150ed6c4, 2023-07-21)"
   xmlns:inkscape="http://www.inkscape.org/namespaces/inkscape"
   xmlns:sodipodi="http://sodipodi.sourceforge.net/DTD/sodipodi-0.dtd"
   xmlns="http://www.w3.org/2000/svg"
   xmlns:svg="http://www.w3.org/2000/svg"><defs
   id="defs1" /><sodipodi:namedview
   id="namedview1"
   pagecolor="#ffffff"
   bordercolor="#000000"
   borderopacity="0.25"
   inkscape:showpageshadow="2"
   inkscape:pageopacity="0.0"
   inkscape:pagecheckerboard="0"
   inkscape:deskcolor="#d1d1d1"
   inkscape:zoom="12.703125"
   inkscape:cx="31.96064"
   inkscape:cy="32"
   inkscape:window-width="1920"
   inkscape:window-height="1009"
   inkscape:window-x="-8"
   inkscape:window-y="-8"
   inkscape:window-maximized="1"
   inkscape:current-layer="Layer_1" />&#10;&#10;<g
   id="SVGRepo_bgCarrier"
   stroke-width="0" />&#10;&#10;<g
   id="SVGRepo_tracerCarrier"
   stroke-linecap="round"
   stroke-linejoin="round" />&#10;&#10;<g
   id="SVGRepo_iconCarrier"
   style="fill:#a8a8a8;fill-opacity:1"> <path
   style="fill:#a8a8a8;fill-opacity:1"
   d="M87.084,192c-0.456-5.272-0.688-10.6-0.688-16C86.404,78.8,162.34,0,256.004,0s169.6,78.8,169.6,176 c0,5.392-0.232,10.728-0.688,16h0.688c0,96.184-169.6,320-169.6,320s-169.6-223.288-169.6-320H87.084z M256.004,224 c36.392,1.024,66.744-27.608,67.84-64c-1.096-36.392-31.448-65.024-67.84-64c-36.392-1.024-66.744,27.608-67.84,64 C189.26,196.392,219.612,225.024,256.004,224z"
   id="path1" /> </g>&#10;&#10;</svg>
