<?xml version="1.0" encoding="UTF-8" standalone="no"?>
<!-- Uploaded to: SVG Repo, www.svgrepo.com, Transformed by: SVG Repo Mixer Tools -->

<svg
   fill="#0040ff"
   height="64px"
   width="64px"
   version="1.1"
   id="Layer_1"
   viewBox="0 0 512.01 512.01"
   xml:space="preserve"
   stroke="#0040ff"
   stroke-width="0.0051201400000000005"
   sodipodi:docname="local.svg"
   inkscape:version="1.3 (0e150ed6c4, 2023-07-21)"
   xmlns:inkscape="http://www.inkscape.org/namespaces/inkscape"
   xmlns:sodipodi="http://sodipodi.sourceforge.net/DTD/sodipodi-0.dtd"
   xmlns="http://www.w3.org/2000/svg"
   xmlns:svg="http://www.w3.org/2000/svg"><defs
   id="defs4" /><sodipodi:namedview
   id="namedview4"
   pagecolor="#ffffff"
   bordercolor="#000000"
   borderopacity="0.25"
   inkscape:showpageshadow="2"
   inkscape:pageopacity="0.0"
   inkscape:pagecheckerboard="0"
   inkscape:deskcolor="#d1d1d1"
   inkscape:zoom="12.703125"
   inkscape:cx="31.96064"
   inkscape:cy="32"
   inkscape:window-width="1920"
   inkscape:window-height="1009"
   inkscape:window-x="-8"
   inkscape:window-y="-8"
   inkscape:window-maximized="1"
   inkscape:current-layer="Layer_1" />&#10;&#10;<g
   id="SVGRepo_bgCarrier"
   stroke-width="0" />&#10;&#10;<g
   id="SVGRepo_tracerCarrier"
   stroke-linecap="round"
   stroke-linejoin="round"
   stroke="#CCCCCC"
   stroke-width="3.072084" />&#10;&#10;<g
   id="SVGRepo_iconCarrier"
   style="fill:#a8a8a8;fill-opacity:1"> <g
   transform="translate(0 -1)"
   id="g4"
   style="fill:#a8a8a8;fill-opacity:1"> <g
   id="g3"
   style="fill:#a8a8a8;fill-opacity:1"> <g
   id="g2"
   style="fill:#a8a8a8;fill-opacity:1"> <path
   d="M511.596,487.499L468.93,274.166c-2.005-9.963-10.752-17.152-20.928-17.152h-82.923c1.707-2.645,3.392-5.355,5.077-8 l12.16-19.136c15.061-23.808,23.019-51.307,23.019-79.531c0-42.496-18.176-83.115-49.92-111.445 C323.714,10.592,281.047-2.975,238.551,2.017C172.183,9.569,117.335,63.03,108.162,129.121 c-5.44,39.168,4.352,78.059,27.541,109.547c4.395,5.952,8.341,12.224,12.523,18.347H64.002c-10.155,0-18.901,7.189-20.907,17.152 L0.428,487.499c-1.259,6.272,0.363,12.757,4.416,17.707c4.053,4.928,10.091,7.808,16.491,7.808h469.333 c6.4,0,12.437-2.88,16.512-7.808C511.212,500.257,512.834,493.771,511.596,487.499z M256.002,86.347c35.307,0,64,28.715,64,64 c0,35.285-28.693,64-64,64c-35.285,0-64-28.715-64-64C192.002,115.062,220.716,86.347,256.002,86.347z M47.362,470.347 l34.133-170.667h93.845c0.064,0.107,0.128,0.235,0.192,0.341c13.696,23.232,26.411,47.019,38.016,69.547 c4.907,9.621,9.813,19.2,14.699,28.949l8.683,17.365c3.627,7.232,10.987,11.797,19.072,11.797 c8.085,0,15.467-4.565,19.093-11.797l18.389-36.779c4.928-9.835,10.176-19.584,15.531-29.291 c1.536-2.773,3.072-5.568,4.608-8.299c4.544-8.021,9.195-16.021,13.931-23.936c3.669-6.144,7.296-12.139,10.859-17.899h92.117 l34.133,170.667H47.362z"
   id="path1"
   style="fill:#a8a8a8;fill-opacity:1" /> <path
   d="M256.008,171.681c11.776,0,21.333-9.557,21.333-21.333s-9.557-21.333-21.333-21.333 c-11.776,0-21.333,9.557-21.333,21.333S244.232,171.681,256.008,171.681z"
   id="path2"
   style="fill:#a8a8a8;fill-opacity:1" /> </g> </g> </g> </g>&#10;&#10;</svg>
