<!DOCTYPE svg PUBLIC "-//W3C//DTD SVG 1.1//EN" "http://www.w3.org/Graphics/SVG/1.1/DTD/svg11.dtd">
<!-- Uploaded to: SVG Repo, www.svgrepo.com, Transformed by: SVG Repo Mixer Tools -->
<svg fill="#009C00" width="64px" height="64px" viewBox="0 0 1024 1024" xmlns="http://www.w3.org/2000/svg" stroke="#009C00">
<g id="SVGRepo_bgCarrier" stroke-width="0"/>
<g id="SVGRepo_tracerCarrier" stroke-linecap="round" stroke-linejoin="round"/>
<g id="SVGRepo_iconCarrier">
<path d="M512 1024C229.23 1024 0 794.77 0 512S229.23 0 512 0s512 229.23 512 512-229.23 512-512 512zm95.731-219.947c62.403-20.276 114.032-58.693 150.859-107.357a15.793 15.793 0 004.801-13.823 15.302 15.302 0 00-.062-.473l-.008-.039a15.75 15.75 0 00-8.378-11.488l-44.709-32.893a15.837 15.837 0 00-13.75-4.587c-.124.014-.249.029-.373.046l-.058.014a15.88 15.88 0 00-11.478 8.236c-25.776 33.881-61.624 60.563-105.31 74.758-113.432 36.856-234.791-24.722-271.525-137.777s25.253-234.206 138.685-271.062c106.335-34.55 218.904 15.82 262.966 115.175l-71.623-.803c-7.187-1.066-14.189 2.885-16.982 9.581a15.743 15.743 0 004.748 18.601l120.91 126.41c2.999 3.135 7.161 4.899 11.51 4.879s8.502-1.823 11.485-4.986L890.37 448.206c5.265-4.193 7.303-11.242 5.082-17.573a20.516 20.516 0 00-.119-.318 15.889 15.889 0 00-.947-2.099l-.031-.073c-3.116-5.729-9.448-8.951-15.937-8.108l-71.678-.494-.892-2.744C753.5 255.685 579.61 167.45 417.952 219.976S167.478 446.095 219.826 607.207c52.348 161.112 226.238 249.347 387.896 196.821l.008.027z"/>
</g>
</svg>